<svg id="Layer_1" data-name="Layer 1" xmlns="http://www.w3.org/2000/svg" viewBox="0 0 1920 532"><defs><style>.cls-1{fill:#f15a24;}.cls-2{fill:none;stroke:#fff;stroke-linecap:round;stroke-linejoin:round;stroke-width:20px;}.cls-3{fill:#fff;}</style></defs><rect class="cls-1" width="1920" height="532"/><g id="icon_04" data-name="icon 04"><circle class="cls-2" cx="486.37" cy="269.72" r="61.33"/><path class="cls-2" d="M380.21,297.22h-33a11,11,0,0,1-11-11v-33a11,11,0,0,1,11-11h33l11.65-28.12-23.34-23.34a11,11,0,0,1,0-15.55l23.34-23.34a11,11,0,0,1,15.55,0l23.34,23.34,28.12-11.65v-33a11,11,0,0,1,11-11h33a11,11,0,0,1,11,11v33L542,175.21l23.33-23.34a11,11,0,0,1,15.56,0l23.33,23.34a11,11,0,0,1,0,15.55L580.89,214.1l11.65,28.12h33a11,11,0,0,1,11,11v33a11,11,0,0,1-11,11h-33l-11.65,28.13,23.33,23.33a11,11,0,0,1,0,15.56l-23.33,23.33a11,11,0,0,1-15.56,0L542,364.24l-28.13,11.65v33a11,11,0,0,1-11,11h-33a11,11,0,0,1-11-11v-33l-28.12-11.65-23.34,23.33a11,11,0,0,1-15.55,0l-23.34-23.33a11,11,0,0,1,0-15.56l23.34-23.33Z"/><circle class="cls-3" cx="486.37" cy="269.72" r="16.22"/></g><path class="cls-3" d="M839.85,326.33a6.27,6.27,0,0,1,1.8,4.45,5.82,5.82,0,0,1-1.8,4.45,6.41,6.41,0,0,1-4.56,1.7h-77.8a6.17,6.17,0,0,1-6.36-6.36V194.89a6.16,6.16,0,0,1,6.36-6.36h77.8a6.16,6.16,0,0,1,6.36,6.36,5.84,5.84,0,0,1-1.8,4.45,6.4,6.4,0,0,1-4.56,1.69H764.48v53.22h61.27a6.16,6.16,0,0,1,6.36,6.36,5.84,5.84,0,0,1-1.8,4.45,6.4,6.4,0,0,1-4.56,1.69H764.48v57.67h70.81A6,6,0,0,1,839.85,326.33Z"/><path class="cls-3" d="M948.39,237.6q9.23,11.57,9.22,30.64v62.33a6,6,0,0,1-1.91,4.55,6.24,6.24,0,0,1-4.45,1.81,6.17,6.17,0,0,1-6.36-6.36v-61.7q0-13.77-6.89-22.36t-21.3-8.59a38,38,0,0,0-30.53,15.58,25.9,25.9,0,0,0-5.09,15.37v61.7a6.36,6.36,0,1,1-12.72,0v-95a6.36,6.36,0,1,1,12.72,0v11.66a45,45,0,0,1,16.43-15.16,44.11,44.11,0,0,1,21.94-6Q939.18,226.05,948.39,237.6Z"/><path class="cls-3" d="M1087,230.4a6.49,6.49,0,0,1,1.8,4.77V327q0,16.55-6.89,28.3a45.67,45.67,0,0,1-18.87,17.92q-12,6.15-27.46,6.15a68.62,68.62,0,0,1-15.58-1.91,62,62,0,0,1-14-4.88q-5.84-3-6.68-6.15a4.66,4.66,0,0,1-1.48-3.39,3.91,3.91,0,0,1,1.91-3.39,3.45,3.45,0,0,1,2.12-.64,16.44,16.44,0,0,1,4.87,1.49l4.46,1.91a68.37,68.37,0,0,0,24.59,5.08q18.87,0,29.57-10.7t10.71-28.94V314.67a39.12,39.12,0,0,1-16.75,17.91,48,48,0,0,1-24,6.47,48.93,48.93,0,0,1-26.39-7.32,51.36,51.36,0,0,1-18.55-20.24,65.15,65.15,0,0,1,0-57.88A51.46,51.46,0,0,1,1009,233.36a48.63,48.63,0,0,1,26.18-7.31,46.72,46.72,0,0,1,24.49,6.68q11.13,6.68,16.43,16V235.17a6.55,6.55,0,0,1,1.8-4.67,6,6,0,0,1,4.56-1.91A6.22,6.22,0,0,1,1087,230.4Zm-29.68,91.16a38.49,38.49,0,0,0,14.41-15.9,50.84,50.84,0,0,0,5.19-23.22,50.17,50.17,0,0,0-5.19-23.11,38.62,38.62,0,0,0-14.41-15.79,39.42,39.42,0,0,0-20.89-5.62,37.94,37.94,0,0,0-20.67,5.83,40.06,40.06,0,0,0-14.41,16,49,49,0,0,0-5.2,22.68,49.58,49.58,0,0,0,5.2,22.9,40,40,0,0,0,14.41,16,37.86,37.86,0,0,0,20.67,5.83A39.42,39.42,0,0,0,1057.36,321.56Z"/><path class="cls-3" d="M1121.7,210.47a7.27,7.27,0,0,1-2.34-5.83v-2.12a7.13,7.13,0,0,1,2.44-5.83,10.2,10.2,0,0,1,6.68-2q8.48,0,8.48,7.85v2.12a7.44,7.44,0,0,1-2.23,5.83c-1.48,1.34-3.64,2-6.46,2A9.74,9.74,0,0,1,1121.7,210.47Zm11.13,124.65a6.36,6.36,0,0,1-10.92-4.55V233.05a6.36,6.36,0,1,1,12.72,0v97.52A6.17,6.17,0,0,1,1132.83,335.12Z"/><path class="cls-3" d="M1247.73,237.6q9.23,11.57,9.22,30.64v62.33a6,6,0,0,1-1.91,4.55,6.24,6.24,0,0,1-4.45,1.81,6.17,6.17,0,0,1-6.36-6.36v-61.7q0-13.77-6.89-22.36T1216,237.92a38,38,0,0,0-30.52,15.58,25.83,25.83,0,0,0-5.09,15.37v61.7a6.36,6.36,0,1,1-12.72,0v-95a6.36,6.36,0,1,1,12.72,0v11.66a44.9,44.9,0,0,1,16.43-15.16,44.08,44.08,0,0,1,21.94-6Q1238.5,226.05,1247.73,237.6Z"/><path class="cls-3" d="M1379.91,280.85a6.29,6.29,0,0,1-4.45,1.8h-80.14a49,49,0,0,0,5.19,22.79,39.21,39.21,0,0,0,14.84,15.9q9.64,5.84,22.79,5.83a38.55,38.55,0,0,0,18.24-4.24,37.58,37.58,0,0,0,12.93-10.81,7.18,7.18,0,0,1,4.45-1.91,5.81,5.81,0,0,1,5.51,5.52,6.3,6.3,0,0,1-2.12,4.45,53.48,53.48,0,0,1-17.06,13.57,46.85,46.85,0,0,1-21.73,5.3q-16.33,0-28.84-7a49.51,49.51,0,0,1-19.5-19.61q-7-12.62-7-29.15,0-17.39,6.89-30.42a49.68,49.68,0,0,1,18.34-19.93,46.53,46.53,0,0,1,24.38-6.89,49.9,49.9,0,0,1,23.85,5.94,47,47,0,0,1,18.13,17.38q7,11.44,7.21,27.14A5.77,5.77,0,0,1,1379.91,280.85Zm-70.07-34q-10.48,8.47-13.46,24.38h72.29v-1.7a33.48,33.48,0,0,0-6.36-16.64,34.41,34.41,0,0,0-13.25-10.81,38.35,38.35,0,0,0-16.43-3.71Q1320.33,238.35,1309.84,246.83Z"/><path class="cls-3" d="M1497.78,280.85a6.29,6.29,0,0,1-4.45,1.8h-80.14a48.89,48.89,0,0,0,5.2,22.79,39.08,39.08,0,0,0,14.84,15.9q9.64,5.84,22.79,5.83a38.51,38.51,0,0,0,18.23-4.24,37.48,37.48,0,0,0,12.93-10.81,7.18,7.18,0,0,1,4.45-1.91,5.81,5.81,0,0,1,5.51,5.52,6.26,6.26,0,0,1-2.12,4.45A53.48,53.48,0,0,1,1478,333.75a46.85,46.85,0,0,1-21.73,5.3q-16.34,0-28.83-7a49.53,49.53,0,0,1-19.51-19.61q-7-12.62-7-29.15,0-17.39,6.89-30.42a49.66,49.66,0,0,1,18.33-19.93,46.56,46.56,0,0,1,24.38-6.89,49.9,49.9,0,0,1,23.85,5.94,46.89,46.89,0,0,1,18.13,17.38q7,11.44,7.21,27.14A5.77,5.77,0,0,1,1497.78,280.85Zm-70.07-34q-10.49,8.47-13.46,24.38h72.29v-1.7a33.48,33.48,0,0,0-6.36-16.64,34.41,34.41,0,0,0-13.25-10.81,38.32,38.32,0,0,0-16.43-3.71Q1438.22,238.35,1427.71,246.83Z"/><path class="cls-3" d="M1584.28,227.75a5.42,5.42,0,0,1,3.39,5.08,6.68,6.68,0,0,1-1.7,4.77,5.32,5.32,0,0,1-4,1.81,16.47,16.47,0,0,1-4.13-1.06,17.85,17.85,0,0,0-5.83-1.06q-7.85,0-15.58,6a47,47,0,0,0-12.72,15.58,41.3,41.3,0,0,0-5,19.29v52.37a6.36,6.36,0,1,1-12.72,0v-95a6.36,6.36,0,1,1,12.72,0v18.66a48.65,48.65,0,0,1,14.73-20,36.82,36.82,0,0,1,23.21-8.16A16.89,16.89,0,0,1,1584.28,227.75Z"/></svg>