<svg id="Layer_1" data-name="Layer 1" xmlns="http://www.w3.org/2000/svg" viewBox="0 0 1920 532"><defs><style>.cls-1{fill:#22b573;}.cls-2{fill:none;stroke:#fff;stroke-linecap:round;stroke-linejoin:round;stroke-width:20px;}.cls-3{fill:#fff;}</style></defs><rect class="cls-1" width="1920" height="532"/><g id="icon_09" data-name="icon 09"><rect class="cls-2" x="519.68" y="199.53" width="186.27" height="248.42" rx="11"/><path class="cls-2" d="M748.32,373.08H706V249.61h42.37a9.12,9.12,0,0,1,9.09,9.09V364A9.11,9.11,0,0,1,748.32,373.08Z"/><path class="cls-2" d="M592.46,79.5c21.57,21.79,6.61,34.81,0,42.52s-10.91,22.74,2.51,37.51"/><path class="cls-2" d="M637.13,79.5c21.57,21.79,6.61,34.81,0,42.52s-10.91,22.74,2.52,37.51"/></g><path class="cls-3" d="M870.17,371a6.34,6.34,0,0,1-4.66,1.91,6.2,6.2,0,0,1-6.57-6.58V231.1a6.22,6.22,0,0,1,1.91-4.77,6.8,6.8,0,0,1,4.87-1.8,6.49,6.49,0,0,1,6.57,6.57V366.35A7.12,7.12,0,0,1,870.17,371Z"/><path class="cls-3" d="M988.79,273.6Q998,285.16,998,304.24v62.33a6,6,0,0,1-1.91,4.55,6.24,6.24,0,0,1-4.45,1.81,6.17,6.17,0,0,1-6.36-6.36v-61.7q0-13.77-6.89-22.36t-21.31-8.59a38,38,0,0,0-30.52,15.58,25.83,25.83,0,0,0-5.09,15.37v61.7a6.36,6.36,0,1,1-12.72,0v-95a6.36,6.36,0,1,1,12.72,0v11.66a44.9,44.9,0,0,1,16.43-15.16,44.08,44.08,0,0,1,21.94-6Q979.56,262.05,988.79,273.6Z"/><path class="cls-3" d="M1052.49,276.89v71q0,8.05,3,10.92a10.81,10.81,0,0,0,7.84,2.86,12.45,12.45,0,0,0,3.18-.53,12.16,12.16,0,0,1,3-.53,4.23,4.23,0,0,1,3.29,1.59,5.49,5.49,0,0,1,1.38,3.71c0,2-1.14,3.64-3.4,5a15.4,15.4,0,0,1-8,2,44.53,44.53,0,0,1-10.18-1.06q-4.46-1.06-8.58-6.36t-4.14-17V276.89H1024.3a6.08,6.08,0,0,1-4.35-1.7,5.89,5.89,0,0,1,0-8.48,6.11,6.11,0,0,1,4.35-1.69h15.47V241.49a6.36,6.36,0,1,1,12.72,0V265h21.2a5.53,5.53,0,0,1,4.14,1.91,6,6,0,0,1,1.8,4.24,5.41,5.41,0,0,1-1.7,4.13,6,6,0,0,1-4.24,1.59Z"/><path class="cls-3" d="M1191.78,316.85a6.31,6.31,0,0,1-4.46,1.8h-80.13a49,49,0,0,0,5.19,22.79,39.14,39.14,0,0,0,14.84,15.9q9.65,5.84,22.79,5.83a38.48,38.48,0,0,0,18.23-4.24,37.61,37.61,0,0,0,12.94-10.81,7.15,7.15,0,0,1,4.45-1.91,5.83,5.83,0,0,1,5.51,5.52,6.3,6.3,0,0,1-2.12,4.45A53.41,53.41,0,0,1,1172,369.75a46.79,46.79,0,0,1-21.73,5.3q-16.32,0-28.83-7a49.51,49.51,0,0,1-19.5-19.61q-7-12.62-7-29.15,0-17.39,6.89-30.42a49.68,49.68,0,0,1,18.34-19.93,46.53,46.53,0,0,1,24.38-6.89,49.9,49.9,0,0,1,23.85,5.94,47,47,0,0,1,18.13,17.38q7,11.44,7.2,27.14A5.76,5.76,0,0,1,1191.78,316.85Zm-70.07-34q-10.5,8.48-13.46,24.38h72.29v-1.7a33.48,33.48,0,0,0-6.36-16.64,34.41,34.41,0,0,0-13.25-10.81,38.35,38.35,0,0,0-16.43-3.71Q1132.2,274.35,1121.71,282.83Z"/><path class="cls-3" d="M1278.27,263.75a5.42,5.42,0,0,1,3.39,5.08,6.67,6.67,0,0,1-1.69,4.77,5.34,5.34,0,0,1-4,1.81,16.37,16.37,0,0,1-4.13-1.06,17.85,17.85,0,0,0-5.83-1.06q-7.85,0-15.59,6a47,47,0,0,0-12.72,15.58,41.3,41.3,0,0,0-5,19.29v52.37a6.36,6.36,0,1,1-12.72,0v-95a6.36,6.36,0,1,1,12.72,0v18.66a48.58,48.58,0,0,1,14.74-20,36.82,36.82,0,0,1,23.21-8.16A16.82,16.82,0,0,1,1278.27,263.75Z"/><path class="cls-3" d="M1381.62,273.6q9.23,11.56,9.22,30.64v62.33a6,6,0,0,1-1.91,4.55,6.24,6.24,0,0,1-4.45,1.81,6.17,6.17,0,0,1-6.36-6.36v-61.7q0-13.77-6.89-22.36t-21.3-8.59a38,38,0,0,0-30.53,15.58,25.9,25.9,0,0,0-5.09,15.37v61.7a6.36,6.36,0,1,1-12.72,0v-95a6.36,6.36,0,1,1,12.72,0v11.66a45,45,0,0,1,16.43-15.16,44.11,44.11,0,0,1,21.94-6Q1372.4,262.05,1381.62,273.6Z"/></svg>