<svg id="Layer_1" data-name="Layer 1" xmlns="http://www.w3.org/2000/svg" viewBox="0 0 1920 532"><defs><style>.cls-1{fill:#0071bc;}.cls-2,.cls-3{fill:none;stroke:#fff;stroke-linecap:round;stroke-width:30px;}.cls-2{stroke-linejoin:round;}.cls-3{stroke-miterlimit:10;}.cls-4{fill:#fff;}</style></defs><rect class="cls-1" width="1920" height="532"/><g id="icon_16" data-name="icon 16"><polygon class="cls-2" points="311.08 338.79 611.77 338.79 611.77 137.9 512.66 138.79 311.08 138.79 311.08 338.79"/><line class="cls-2" x1="311.08" y1="288.43" x2="611.77" y2="288.43"/><line class="cls-3" x1="417.51" y1="403.54" x2="505.34" y2="403.36"/><line class="cls-3" x1="460.54" y1="341.79" x2="461.1" y2="402.01"/></g><path class="cls-4" d="M889.77,191.33a6.19,6.19,0,0,1,1.81,4.56V331.57a6,6,0,0,1-1.91,4.55,6.53,6.53,0,0,1-4.67,1.81,6.76,6.76,0,0,1-4.87-1.81,6,6,0,0,1-1.91-4.55V215L828.4,290.44c-1.42,1.84-3,2.68-4.88,2.54h-.42a6.09,6.09,0,0,1-4.67-2.54l-49.81-75.9v117a6.19,6.19,0,0,1-6.37,6.36,5.81,5.81,0,0,1-4.45-1.81,6.38,6.38,0,0,1-1.69-4.55V195.89a6.31,6.31,0,0,1,1.8-4.46,6,6,0,0,1,4.56-1.9,7.94,7.94,0,0,1,3.18.74,5.66,5.66,0,0,1,2.54,2l55.55,83.32,56-83.32c1.56-2.12,3.46-3,5.73-2.75A5.92,5.92,0,0,1,889.77,191.33Z"/><path class="cls-4" d="M1020.79,231.5a6.55,6.55,0,0,1,1.8,4.67v95.4a6.36,6.36,0,1,1-12.72,0V317.36A44.35,44.35,0,0,1,994,333.47a43,43,0,0,1-23.11,6.58,45.67,45.67,0,0,1-25.54-7.42,50.92,50.92,0,0,1-17.81-20.36,64,64,0,0,1-6.47-29,62.56,62.56,0,0,1,6.57-28.94,50.33,50.33,0,0,1,17.92-20A47.33,47.33,0,0,1,994,233.2a40.47,40.47,0,0,1,15.9,16.11V236.17a6.55,6.55,0,0,1,1.8-4.67,6.4,6.4,0,0,1,9.12,0ZM992,322.34a39.52,39.52,0,0,0,13.78-16.11,52.06,52.06,0,0,0,5-23,50.43,50.43,0,0,0-5-22.47,39.75,39.75,0,0,0-13.78-16,35.17,35.17,0,0,0-19.83-5.83,35.53,35.53,0,0,0-19.82,5.73,39,39,0,0,0-13.78,15.79,50.72,50.72,0,0,0-5,22.79,52.86,52.86,0,0,0,4.88,23,38.62,38.62,0,0,0,13.67,16.11,37,37,0,0,0,39.86,0Z"/><path class="cls-4" d="M1135.9,238.6q9.22,11.57,9.22,30.64v62.33a6,6,0,0,1-1.9,4.55,6.28,6.28,0,0,1-4.46,1.81,6.19,6.19,0,0,1-6.36-6.36v-61.7q0-13.77-6.89-22.36t-21.3-8.59a38,38,0,0,0-30.53,15.58,25.9,25.9,0,0,0-5.09,15.37v61.7a6.36,6.36,0,1,1-12.72,0v-95a6.36,6.36,0,1,1,12.72,0v11.66A45,45,0,0,1,1085,233.09a44.11,44.11,0,0,1,21.94-6Q1126.69,227.05,1135.9,238.6Z"/><path class="cls-4" d="M1270.94,231.5a6.56,6.56,0,0,1,1.81,4.67v95.4a6.36,6.36,0,1,1-12.72,0V317.36a44.46,44.46,0,0,1-15.91,16.11,42.91,42.91,0,0,1-23.1,6.58,45.7,45.7,0,0,1-25.55-7.42,51,51,0,0,1-17.81-20.36,64,64,0,0,1-6.46-29,62.56,62.56,0,0,1,6.57-28.94,50.31,50.31,0,0,1,17.91-20,47.33,47.33,0,0,1,48.44-1.06A40.56,40.56,0,0,1,1260,249.31V236.17a6.51,6.51,0,0,1,1.8-4.67,6.39,6.39,0,0,1,9.11,0Zm-28.83,90.84a39.44,39.44,0,0,0,13.78-16.11,52.06,52.06,0,0,0,5-23,50.43,50.43,0,0,0-5-22.47,39.67,39.67,0,0,0-13.78-16,35.11,35.11,0,0,0-19.82-5.83,35.51,35.51,0,0,0-19.82,5.73,39,39,0,0,0-13.78,15.79,50.72,50.72,0,0,0-5,22.79,53,53,0,0,0,4.87,23,38.65,38.65,0,0,0,13.68,16.11,35.39,35.39,0,0,0,20,5.83A35,35,0,0,0,1242.11,322.34Z"/><path class="cls-4" d="M1402.17,231.4a6.45,6.45,0,0,1,1.8,4.77V328q0,16.55-6.89,28.3a45.56,45.56,0,0,1-18.87,17.92q-12,6.15-27.45,6.15a68.55,68.55,0,0,1-15.58-1.91,61.87,61.87,0,0,1-14-4.88q-5.82-3-6.67-6.15A4.67,4.67,0,0,1,1313,364a3.91,3.91,0,0,1,1.91-3.39,3.45,3.45,0,0,1,2.12-.64,16.56,16.56,0,0,1,4.88,1.49l4.45,1.91a68.37,68.37,0,0,0,24.59,5.08q18.87,0,29.57-10.7t10.71-28.94V315.67a39.07,39.07,0,0,1-16.75,17.91,48,48,0,0,1-24,6.47,49,49,0,0,1-26.4-7.32,51.36,51.36,0,0,1-18.55-20.24,65.15,65.15,0,0,1,0-57.88,51.46,51.46,0,0,1,18.55-20.25,48.65,48.65,0,0,1,26.18-7.31,46.72,46.72,0,0,1,24.49,6.68q11.13,6.68,16.43,16V236.17a6.55,6.55,0,0,1,1.8-4.67,6,6,0,0,1,4.56-1.91A6.19,6.19,0,0,1,1402.17,231.4Zm-29.68,91.16a38.51,38.51,0,0,0,14.42-15.9,50.84,50.84,0,0,0,5.19-23.22,50.17,50.17,0,0,0-5.19-23.11,38.64,38.64,0,0,0-14.42-15.79,39.39,39.39,0,0,0-20.88-5.62,37.89,37.89,0,0,0-20.67,5.83,40,40,0,0,0-14.42,16,49.16,49.16,0,0,0-5.19,22.68,49.7,49.7,0,0,0,5.19,22.9,40,40,0,0,0,14.42,16,37.81,37.81,0,0,0,20.67,5.83A39.38,39.38,0,0,0,1372.49,322.56Z"/><path class="cls-4" d="M1522.9,281.85a6.27,6.27,0,0,1-4.45,1.8h-80.13a48.89,48.89,0,0,0,5.19,22.79,39.14,39.14,0,0,0,14.84,15.9q9.64,5.84,22.79,5.83a38.51,38.51,0,0,0,18.23-4.24,37.48,37.48,0,0,0,12.93-10.81,7.2,7.2,0,0,1,4.46-1.91,5.83,5.83,0,0,1,5.51,5.52,6.3,6.3,0,0,1-2.12,4.45,53.52,53.52,0,0,1-17.07,13.57,46.82,46.82,0,0,1-21.73,5.3q-16.32,0-28.83-7a49.51,49.51,0,0,1-19.5-19.61q-7-12.62-7-29.15,0-17.39,6.89-30.42a49.68,49.68,0,0,1,18.34-19.93,46.53,46.53,0,0,1,24.38-6.89,49.9,49.9,0,0,1,23.85,5.94,46.86,46.86,0,0,1,18.12,17.38q7,11.44,7.21,27.14A5.73,5.73,0,0,1,1522.9,281.85Zm-70.06-34q-10.5,8.47-13.46,24.38h72.29v-1.7a33.48,33.48,0,0,0-6.36-16.64,34.48,34.48,0,0,0-13.25-10.81,38.35,38.35,0,0,0-16.43-3.71Q1463.33,239.35,1452.84,247.83Z"/><path class="cls-4" d="M1609.4,228.75a5.42,5.42,0,0,1,3.39,5.08,6.67,6.67,0,0,1-1.69,4.77,5.35,5.35,0,0,1-4,1.81,16.51,16.51,0,0,1-4.14-1.06,17.8,17.8,0,0,0-5.83-1.06q-7.85,0-15.58,6a47,47,0,0,0-12.72,15.58,41.3,41.3,0,0,0-5,19.29v52.37a6.36,6.36,0,1,1-12.72,0v-95a6.36,6.36,0,1,1,12.72,0v18.66a48.65,48.65,0,0,1,14.73-20,36.85,36.85,0,0,1,23.22-8.16A16.85,16.85,0,0,1,1609.4,228.75Z"/></svg>